:version 1.10
:name ASF
:units
  mass 1
  length 1
  angle deg
:documentation
  ASF file generated by Kaydara
:root
  axis xyz
  order  tx ty tz rx ry rz
  position 0 0 0
  orientation 0 0 0
:bonedata
  begin
    id 1
    name lfemurDummy
    direction 0.61522 -0.761478 0.204097
    length 5.68318
    axis 0 -0 0 xyz
  end
  begin
    id 2
    name lfemur
    direction 0.34202 -0.939693 -5.84747e-008
    length 16.9147
    axis 0 -0 20 xyz
    dof rx ry rz
    limits( -inf , inf )
( -inf , inf )
( -inf , inf )

  end
  begin
    id 3
    name ltibia
    direction 0.34202 -0.939693 1.20839e-009
    length 18.0532
    axis 0 -0 20 xyz
    dof rz ry rx
    limits( -inf , inf )
( -inf , inf )
( -inf , inf )

  end
  begin
    id 4
    name lfoot
    direction 0.0841971 -0.23133 0.969225
    length 5.23822
    axis -90 7.62852e-016 20 xyz
    dof ry rx rz
    limits( -inf , inf )
( -inf , inf )
( -inf , inf )

  end
  begin
    id 5
    name ltoes
    direction 0 0 0
    length 0
    axis 0 0 0 xyz
    dof rz ry rx
    limits( -inf , inf )
( -inf , inf )
( -inf , inf )

  end
  begin
    id 6
    name rfemurDummy
    direction -0.625247 -0.75382 0.202044
    length 5.74091
    axis 0 -0 0 xyz
  end
  begin
    id 7
    name rfemur
    direction -0.34202 -0.939693 -1.47013e-008
    length 16.4922
    axis 0 -0 -20 xyz
    dof rx ry rz
    limits( -inf , inf )
( -inf , inf )
( -inf , inf )

  end
  begin
    id 8
    name rtibia
    direction -0.34202 -0.939693 -7.74345e-010
    length 18.2421
    axis 0 -0 -20 xyz
    dof rz ry rx
    limits( -inf , inf )
( -inf , inf )
( -inf , inf )

  end
  begin
    id 9
    name rfoot
    direction -0.124331 -0.341598 0.931586
    length 5.45787
    axis -90 -7.62852e-016 -20 xyz
    dof ry rx rz
    limits( -inf , inf )
( -inf , inf )
( -inf , inf )

  end
  begin
    id 10
    name rtoes
    direction 0 0 0
    length 0
    axis 0 0 0 xyz
    dof rz ry rx
    limits( -inf , inf )
( -inf , inf )
( -inf , inf )

  end
  begin
    id 11
    name lowerbackDummy
    direction 0 0 0
    length 0
    axis 0 -0 0 xyz
  end
  begin
    id 12
    name lowerback
    direction -0.0218484 0.994884 -0.0986304
    length 4.45607
    axis 0 -0 0 xyz
    dof rx ry rz
    limits( -inf , inf )
( -inf , inf )
( -inf , inf )

  end
  begin
    id 13
    name upperback
    direction -0.00973057 0.999717 -0.0217111
    length 4.47449
    axis 0 -0 0 xyz
    dof rx ry rz
    limits( -inf , inf )
( -inf , inf )
( -inf , inf )

  end
  begin
    id 14
    name thorax
    direction -0.000928171 0.999699 0.0245198
    length 4.50973
    axis 0 -0 0 xyz
    dof rx ry rz
    limits( -inf , inf )
( -inf , inf )
( -inf , inf )

  end
  begin
    id 15
    name rclavicle
    direction -0.9009 0.425937 -0.0834055
    length 7.28587
    axis 0 -0 0 xyz
    dof rx ry rz
    limits( -inf , inf )
( -inf , inf )
( -inf , inf )

  end
  begin
    id 16
    name rhumerus
    direction -1 -2.23604e-007 -1.42637e-007
    length 13.5704
    axis 180 30 90 xyz
    dof rx ry rz
    limits( -inf , inf )
( -inf , inf )
( -inf , inf )

  end
  begin
    id 17
    name rradius
    direction -1 5.68281e-008 -4.4952e-007
    length 8.06782
    axis 180 30 90 xyz
    dof rz ry rx
    limits( -inf , inf )
( -inf , inf )
( -inf , inf )

  end
  begin
    id 18
    name rwrist
    direction -1 1.51393e-007 1.38143e-007
    length 4.03391
    axis -90 -90 0 xyz
    dof rz rx ry
    limits( -inf , inf )
( -inf , inf )
( -inf , inf )

  end
  begin
    id 19
    name rthumb
    direction 0 0 0
    length 0
    axis 0 0 0 xyz
    dof ry rx rz
    limits( -inf , inf )
( -inf , inf )
( -inf , inf )

  end
  begin
    id 20
    name rhand
    direction -1 -3.34077e-007 -5.59631e-007
    length 1.29744
    axis -90 -90 0 xyz
    dof ry rx rz
    limits( -inf , inf )
( -inf , inf )
( -inf , inf )

  end
  begin
    id 21
    name rfingers
    direction 0 0 0
    length 0
    axis 0 0 0 xyz
    dof rz ry rx
    limits( -inf , inf )
( -inf , inf )
( -inf , inf )

  end
  begin
    id 22
    name lclavicle
    direction 0.940017 0.332249 -0.0773232
    length 8.29589
    axis 0 -0 0 xyz
    dof rx ry rz
    limits( -inf , inf )
( -inf , inf )
( -inf , inf )

  end
  begin
    id 23
    name lhumerus
    direction 1 7.41158e-008 -1.44768e-008
    length 12.0042
    axis 180 -30 -90 xyz
    dof rx ry rz
    limits( -inf , inf )
( -inf , inf )
( -inf , inf )

  end
  begin
    id 24
    name lradius
    direction 1 -1.32972e-007 3.10821e-007
    length 8.1902
    axis 180 -30 -90 xyz
    dof rz ry rx
    limits( -inf , inf )
( -inf , inf )
( -inf , inf )

  end
  begin
    id 25
    name lwrist
    direction 1 3.08957e-007 4.01394e-007
    length 4.09509
    axis -90 90 0 xyz
    dof rz rx ry
    limits( -inf , inf )
( -inf , inf )
( -inf , inf )

  end
  begin
    id 26
    name lthumb
    direction 0 0 0
    length 0
    axis 0 0 0 xyz
    dof ry rx rz
    limits( -inf , inf )
( -inf , inf )
( -inf , inf )

  end
  begin
    id 27
    name lhand
    direction 1 -1.64125e-007 -6.99514e-007
    length 1.37229
    axis -90 90 0 xyz
    dof ry rx rz
    limits( -inf , inf )
( -inf , inf )
( -inf , inf )

  end
  begin
    id 28
    name lfingers
    direction 0 0 0
    length 0
    axis 0 0 0 xyz
    dof rz ry rx
    limits( -inf , inf )
( -inf , inf )
( -inf , inf )

  end
  begin
    id 29
    name lowerneck
    direction -0.030798 0.998024 0.0547665
    length 3.93918
    axis 0 -0 0 xyz
    dof rx ry rz
    limits( -inf , inf )
( -inf , inf )
( -inf , inf )

  end
  begin
    id 30
    name upperneck
    direction 0.0531588 0.996611 -0.0627736
    length 3.95491
    axis 0 -0 0 xyz
    dof rx ry rz
    limits( -inf , inf )
( -inf , inf )
( -inf , inf )

  end
  begin
    id 31
    name head
    direction 0 0 0
    length 0
    axis 0 0 0 xyz
    dof rx ry rz
    limits( -inf , inf )
( -inf , inf )
( -inf , inf )

  end
:hierarchy
  begin
    root lfemurDummy rfemurDummy lowerbackDummy
    lfemurDummy lfemur
    lfemur ltibia
    ltibia lfoot
    lfoot ltoes
    rfemurDummy rfemur
    rfemur rtibia
    rtibia rfoot
    rfoot rtoes
    lowerbackDummy lowerback
    lowerback upperback
    upperback thorax
    thorax rclavicle lclavicle lowerneck
    rclavicle rhumerus
    rhumerus rradius
    rradius rwrist
    rwrist rthumb rhand
    rhand rfingers
    lclavicle lhumerus
    lhumerus lradius
    lradius lwrist
    lwrist lthumb lhand
    lhand lfingers
    lowerneck upperneck
    upperneck head
  end

:SAMPLES-PER-SECOND 30
:FULLY-SPECIFIED
:DEGREES
46
root  -7.418955405 33.8679997 8.471778059 17.52600098 -55.55899811 -16.190979
lowerback  10.34300041 7.955850124 -2.814850092
upperback  2.434250116 9.815839767 -6.540810108
thorax  -2.485300064 4.829299927 -6.45882988
lowerneck  -2.826250076 -0.1973409951 -12.40750027
upperneck  5.39989996 -0.5801699758 16.11470032
head  2.109149933 -0.1267610043 7.00177002
lclavicle  0 -9.442270133e-015 7.951389973e-016
lhumerus  6.326809883 -39.51499939 72.93479919
lradius  2.058354152e-031 -2.869150087e-031 125.6559982
lwrist  -7.062250077e-031 -3.531125038e-031 0.04130470008
lhand  -1.496451383e-031 -27.76390076 20.11240005
lfingers  90 7.125020027 -90
lthumb  89.89689403 5.08795885 91.16245106
rclavicle  0 -9.442270133e-015 7.951389973e-016
rhumerus  30.15649986 -3.421540022 -56.48320007
rradius  5.089531927e-032 3.494253953e-031 81.71289825
rwrist  1.412450015e-030 -0 -25.05850029
rhand  -7.920061211e-032 -33.2840004 9.303460121
rfingers  -90 -7.125020027 -90
rthumb  -92.93752616 -24.25625642 -97.11982154
rfemur  14.4399004 1.980759978 24.79610062
rtibia  -0 0 47.45679855
rfoot  -0 -26.95479965 -16.85300064
rtoes  5.373923086 19.29304026 -105.8922705
lfemur  -62.38840103 -1.358139992 -0.5589429736
ltibia  -0 0 74.96099854
lfoot  -0 -9.662449837 -12.52910042
ltoes  -4.250644065 -19.5611806 -102.515957
47
root  -7.534488918 33.77755533 8.562844194 18.19598389 -56.01200104 -16.35198975
lowerback  9.909110069 8.389860153 -2.745889902
upperback  2.172090054 10.41300011 -6.73281002
thorax  -2.422379971 5.130740166 -6.715119839
lowerneck  -2.135390043 -0.2663089931 -12.15849972
upperneck  5.296649933 -0.7322980165 15.92720032
head  1.98337996 -0.2309380025 6.890230179
lclavicle  0 -9.442270133e-015 7.951389973e-016
lhumerus  2.719500065 -39.1977005 75.30750275
lradius  2.072550635e-031 -2.858912014e-031 125.9400024
lwrist  -7.062250077e-031 -3.531125038e-031 1.277770042
lhand  -1.496451383e-031 -27.76390076 20.11240005
lfingers  90 7.125020027 -90
lthumb  89.89689403 5.08795885 91.16245106
rclavicle  0 -9.442270133e-015 7.951389973e-016
rhumerus  35.18470001 -5.552710056 -57.11539841
rradius  7.499909263e-032 3.450559034e-031 77.73729706
rwrist  7.062250077e-031 2.206953149e-032 -29.56369972
rhand  -7.920061211e-032 -33.2840004 9.303460121
rfingers  -90 -7.125020027 -90
rthumb  -92.93752616 -24.25625642 -97.11982154
rfemur  15.03199959 1.37627995 24.45050049
rtibia  -0 0 46.04240036
rfoot  -0 -28.00760078 -18.32500076
rtoes  5.373923086 19.29304026 -105.8922705
lfemur  -62.65539932 -0.2544780076 -1.092859983
ltibia  -0 0 75.41690063
lfoot  -0 -10.88389969 -12.03079987
ltoes  -4.250644065 -19.5611806 -102.515957
48
root  -7.654844119 33.71333325 8.637000257 19.14599609 -56.17500305 -16.82397461
lowerback  9.493800163 8.790459633 -2.387239933
upperback  1.861549973 10.99489975 -6.959179878
thorax  -2.354510069 5.426889896 -7.158189774
lowerneck  -1.54610002 -0.4354220033 -11.79090023
upperneck  5.486219883 -1.070230007 16.18059921
head  1.985339999 -0.4092670083 6.901730061
lclavicle  0 -9.442270133e-015 7.951389973e-016
lhumerus  -0.5157799721 -39.00659943 77.48040009
lradius  2.060907343e-031 -2.867316683e-031 125.7070007
lwrist  -7.062250077e-031 -0 2.508480072
lhand  -1.496451383e-031 -27.76390076 20.11240005
lfingers  90 7.125020027 -90
lthumb  89.89689403 5.08795885 91.16245106
rclavicle  0 -9.442270133e-015 7.951389973e-016
rhumerus  39.32529831 -7.438960075 -58.03120041
rradius  9.951204706e-032 3.388005208e-031 73.63150024
rwrist  7.062250077e-031 2.648343779e-031 -34.87440109
rhand  -7.920061211e-032 -33.2840004 9.303460121
rfingers  -90 -7.125020027 -90
rthumb  -92.93752616 -24.25625642 -97.11982154
rfemur  15.63440037 0.6287389994 24.42609978
rtibia  -0 0 44.44720078
rfoot  -0 -29.24500084 -19.4598999
rtoes  5.373923086 19.29304026 -105.8922705
lfemur  -62.98749924 0.6483370066 -1.260290027
ltibia  -0 0 75.76799774
lfoot  -0 -11.77779961 -11.82429981
ltoes  -4.250644065 -19.5611806 -102.515957
49
root  -7.772555314 33.67088798 8.687155266 19.93902588 -56.13999939 -17.27001953
lowerback  9.3269701 9.148400307 -1.962309957
upperback  1.50485003 11.4982996 -7.310780048
thorax  -2.427459955 5.679860115 -7.803850174
lowerneck  -0.9569410086 -0.6584010124 -11.31610012
upperneck  5.862679958 -1.534420013 16.93449974
head  2.05934 -0.6365450025 7.057439804
lclavicle  0 -9.442270133e-015 7.951389973e-016
lhumerus  -3.545150042 -39.01729965 79.24430084
lradius  2.038776964e-031 -2.883094263e-031 125.2659988
lwrist  -1.412450015e-030 -0 3.499890089
lhand  -1.496451383e-031 -27.76390076 20.11240005
lfingers  90 7.125020027 -90
lthumb  89.89689403 5.08795885 91.16245106
rclavicle  0 -9.442270133e-015 7.951389973e-016
rhumerus  42.43560028 -8.930789948 -58.98059845
rradius  1.221268969e-031 3.313207833e-031 69.76580048
rwrist  7.062250077e-031 4.413906298e-031 -39.72940063
rhand  -7.920061211e-032 -33.2840004 9.303460121
rfingers  -90 -7.125020027 -90
rthumb  -92.93752616 -24.25625642 -97.11982154
rfemur  16.2621994 -0.2039179951 24.5781002
rtibia  -0 0 42.87279892
rfoot  -0 -30.42679977 -20.46249962
rtoes  5.373923086 19.29304026 -105.8922705
lfemur  -63.24900055 1.203420043 -1.168429971
ltibia  -0 0 76.02020264
lfoot  -0 -12.23799992 -11.77540016
ltoes  -4.250644065 -19.5611806 -102.515957
50
root  -7.86968892 33.64355433 8.716177753 20.95098877 -56.02200317 -18.17498779
lowerback  9.689649582 9.44451046 -1.194319963
upperback  0.9419260025 11.90470028 -7.808189869
thorax  -2.903069973 5.868330002 -8.903389931
lowerneck  -0.1847939938 -0.8010020256 -10.39249992
upperneck  6.223169804 -1.929430008 17.95369911
head  2.08468008 -0.824804008 7.223879814
lclavicle  0 -9.442270133e-015 7.951389973e-016
lhumerus  -6.471809864 -39.30720139 80.41390228
lradius  2.010298691e-031 -2.903023116e-031 124.7020035
lwrist  -1.059337512e-030 -1.765562519e-031 4.77794981
lhand  -1.496451383e-031 -27.76390076 20.11240005
lfingers  90 7.125020027 -90
lthumb  89.89689403 5.08795885 91.16245106
rclavicle  0 -9.442270133e-015 7.951389973e-016
rhumerus  44.07369995 -9.845649719 -59.73080063
rradius  1.397716584e-031 3.242719906e-031 66.68240356
rwrist  7.062250077e-031 3.531125038e-031 -43.18059921
rhand  -7.920061211e-032 -33.2840004 9.303460121
rfingers  -90 -7.125020027 -90
rthumb  -92.93752616 -24.25625642 -97.11982154
rfemur  16.79929924 -0.8054710031 25.20960045
rtibia  -0 0 41.54560089
rfoot  -0 -31.13190079 -21.84280014
rtoes  5.373923086 19.29304026 -105.8922705
lfemur  -63.47359848 1.521929979 -0.5384699702
ltibia  -0 0 76.22260284
lfoot  -0 -12.38409996 -12.03369999
ltoes  -4.250644065 -19.5611806 -102.515957
51
root  -7.929022481 33.63733367 8.741133232 21.90002441 -55.90799713 -19.0579834
lowerback  10.45359993 9.613349915 -0.09671720117
upperback  0.2515810132 12.14299965 -8.607239723
thorax  -3.606240034 5.948200226 -10.60560036
lowerneck  0.4934149981 -0.8639069796 -9.031559944
upperneck  6.593279839 -2.220380068 19.12260056
head  2.109970093 -0.9462199807 7.365320206
lclavicle  0 -9.442270133e-015 7.951389973e-016
lhumerus  -9.38615036 -39.5646019 81.07640076
lradius  1.97248471e-031 -2.928847573e-031 123.9589996
lwrist  -7.062250077e-031 -1.765562519e-031 5.995250225
lhand  -1.496451383e-031 -27.76390076 20.11240005
lfingers  90 7.125020027 -90
lthumb  89.89689403 5.08795885 91.16245106
rclavicle  0 -9.442270133e-015 7.951389973e-016
rhumerus  44.5522995 -10.29669952 -60.41389847
rradius  1.529116014e-031 3.182867929e-031 64.33940125
rwrist  0 5.296687558e-031 -44.83499908
rhand  -7.920061211e-032 -33.2840004 9.303460121
rfingers  -90 -7.125020027 -90
rthumb  -92.93752616 -24.25625642 -97.11982154
rfemur  17.08180046 -1.149919987 25.88349915
rtibia  -0 0 40.59560013
rfoot  -0 -31.61420059 -23.21409988
rtoes  5.373923086 19.29304026 -105.8922705
lfemur  -63.74850082 1.60247004 0.1825370044
ltibia  -0 0 76.39109802
lfoot  -0 -12.50590038 -12.26550007
ltoes  -4.250644065 -19.5611806 -102.515957
52
root  -7.975155538 33.66733461 8.771044814 22.5380249 -56.06800079 -19.50701904
lowerback  10.1182003 9.844220161 -0.05883409828
upperback  0.1752880067 12.45610046 -8.849200249
thorax  -3.384259939 6.114709854 -10.85079956
lowerneck  1.026579976 -0.8324459791 -8.283430099
upperneck  6.536039829 -2.256419897 19.86540031
head  2.003289938 -0.9682379961 7.477449894
lclavicle  0 -9.442270133e-015 7.951389973e-016
lhumerus  -11.89159966 -38.67129898 82.51409912
lradius  1.934648603e-031 -2.95397678e-031 123.2220001
lwrist  -1.412450015e-030 -3.531125038e-031 6.6395998
lhand  -1.496451383e-031 -27.76390076 20.11240005
lfingers  90 7.125020027 -90
lthumb  89.89689403 5.08795885 91.16245106
rclavicle  0 -9.442270133e-015 7.951389973e-016
rhumerus  44.92250061 -9.978230476 -59.69879913
rradius  1.615105775e-031 3.14010786e-031 62.78110123
rwrist  0 7.062250077e-031 -45.1391983
rhand  -7.920061211e-032 -33.2840004 9.303460121
rfingers  -90 -7.125020027 -90
rthumb  -92.93752616 -24.25625642 -97.11982154
rfemur  16.99959946 -1.279309988 26.12890053
rtibia  -0 0 40.05260086
rfoot  -0 -31.48649979 -24.4253006
rtoes  5.373923086 19.29304026 -105.8922705
lfemur  -63.91839981 1.648990035 0.5567409992
ltibia  -0 0 76.49279785
lfoot  -0 -12.70269966 -12.10210037
ltoes  -4.250644065 -19.5611806 -102.515957
